<svg xmlns="http://www.w3.org/2000/svg" width="184" height="75" fill="none"><path fill="#fff" d="M10.601 22.456h5.513l10.277 30.69h-5.592l-2.598-7.65H8.435l-2.559 7.65H.285L10.6 22.456Zm6.615 18.846-3.859-12.665-4.016 12.665h7.875ZM32.37 22.456l6.93 11.325 6.892-11.325h5.906L42.41 38.017l9.372 15.13h-5.907l-6.575-10.894-6.615 10.893H26.74l9.371-15.129-9.686-15.56h5.946Z"/><path fill="#EC7979" d="M54.913 53.146v-30.69h5.433v30.69h-5.433ZM87.088 27.686h-8.939v25.46h-5.394v-25.46h-8.938v-5.23h23.27v5.23Z"/></svg>